<svg xmlns="http://www.w3.org/2000/svg" viewBox="5 5 53 53" x="0px" y="0px"><g data-name="Layer 19"><path d="M57.56,32.38a1,1,0,0,0,.23-1.09,1,1,0,0,0-.92-.63h-.38c0-.68-.11-1.36-.2-2l.85-1.24a1,1,0,0,0,0-1.11,1,1,0,0,0-1-.44l-.38.07c-.17-.65-.36-1.31-.59-2l.59-1.38a1,1,0,0,0-1.29-1.32l-.35.14c-.3-.61-.62-1.21-1-1.81l.31-1.46a1,1,0,0,0-.41-1,1,1,0,0,0-1.11,0l-.32.21c-.41-.54-.84-1.07-1.3-1.58l0-1.5a1,1,0,0,0-.6-.94,1,1,0,0,0-1.1.21l-.27.27c-.51-.46-1-.9-1.58-1.31L46.52,11a1,1,0,0,0-.78-.8,1,1,0,0,0-1,.42l-.22.31c-.59-.35-1.2-.68-1.8-1l-.56-1.39a1,1,0,0,0-.91-.63,1,1,0,0,0-.93.61l-.16.35c-.65-.23-1.31-.43-2-.6L37.36,7a1,1,0,0,0-1.82.33l-.08.38c-.67-.09-1.35-.16-2-.2l-1-1.08a1,1,0,0,0-1.09-.23,1,1,0,0,0-.63.92v.38c-.68,0-1.36.11-2,.2l-1.24-.85a1,1,0,0,0-1.55,1l.07.38c-.65.17-1.31.36-2,.59l-1.38-.59a1,1,0,0,0-1.32,1.29l.14.35c-.61.3-1.21.62-1.81,1l-1.46-.31a1,1,0,0,0-1,.41,1,1,0,0,0,0,1.11l.21.32c-.54.41-1.07.84-1.58,1.3l-1.5,0a1,1,0,0,0-.94.6,1,1,0,0,0,.21,1.1l.27.27c-.46.51-.9,1-1.31,1.58L11,17.48a1,1,0,0,0-.8.78,1,1,0,0,0,.42,1l.31.22c-.35.59-.68,1.2-1,1.8l-1.39.56a1,1,0,0,0-.63.91,1,1,0,0,0,.61.93l.35.16c-.23.65-.43,1.31-.6,2L7,26.64a1,1,0,0,0-.44,1,1,1,0,0,0,.77.8l.38.08c-.09.67-.16,1.35-.2,2L6.44,31.62a1,1,0,0,0-.23,1.09,1,1,0,0,0,.92.63h.38c0,.68.11,1.36.2,2l-.85,1.24a1,1,0,0,0,1,1.55l.38-.07c.17.65.36,1.31.59,2l-.59,1.38a1,1,0,0,0,1.29,1.32l.35-.14c.3.61.62,1.21,1,1.81l-.31,1.46a1,1,0,0,0,1.52,1l.32-.21c.41.54.84,1.07,1.3,1.58l0,1.5a1,1,0,0,0,1.7.73l.27-.27c.51.46,1,.9,1.58,1.31L17.48,53a1,1,0,0,0,.78.8,1,1,0,0,0,1-.42l.22-.31c.59.35,1.2.68,1.8,1l.56,1.39a1,1,0,0,0,.91.63,1,1,0,0,0,.93-.61l.16-.35c.65.23,1.31.43,2,.6L26.64,57a1,1,0,0,0,1,.44,1,1,0,0,0,.8-.77l.08-.38c.67.09,1.35.16,2,.2l1.05,1.08a1,1,0,0,0,.72.3,1,1,0,0,0,.37-.07,1,1,0,0,0,.63-.92v-.38c.68,0,1.36-.11,2-.2l1.24.85a1,1,0,0,0,1.55-1l-.07-.38c.65-.17,1.31-.36,2-.59l1.38.59a1,1,0,0,0,1.32-1.29l-.14-.35c.61-.3,1.21-.62,1.81-1l1.46.31a1,1,0,0,0,1-1.52l-.21-.32c.54-.41,1.07-.84,1.58-1.3l1.5,0h0a1,1,0,0,0,.71-1.7l-.27-.27c.46-.51.9-1,1.31-1.58L53,46.52a1,1,0,0,0,.8-.78,1,1,0,0,0-.42-1l-.31-.22c.35-.59.68-1.2,1-1.8l1.39-.56a1,1,0,0,0,.63-.91,1,1,0,0,0-.61-.93l-.35-.16c.23-.65.43-1.31.6-2L57,37.36a1,1,0,0,0,.44-1,1,1,0,0,0-.77-.8l-.38-.08c.09-.67.16-1.35.2-2ZM32,18a1,1,0,1,1-1,1A1,1,0,0,1,32,18ZM23.77,43.33a1,1,0,0,1-.22-1.4,1,1,0,0,1,1.62,1.17A1,1,0,0,1,23.77,43.33Zm16.46,0a1,1,0,0,1-1.18-1.62,1,1,0,0,1,1.4.22A1,1,0,0,1,40.23,43.33Zm5.38.44a1,1,0,0,1-1.45.06l-4.22-4.09-3.27,2.31,2.46,5.35a1,1,0,0,1,0,.79,1,1,0,0,1-.56.56A17.91,17.91,0,0,1,32,50h-.24A18,18,0,0,1,25,48.58a1.06,1.06,0,0,1-.55-.57,1,1,0,0,1,0-.79l2.59-5.29-3.2-2.39-4.33,4a1,1,0,0,1-.74.26,1,1,0,0,1-.71-.36A18,18,0,0,1,14,31.75a10.56,10.56,0,0,1,.08-1.33,1,1,0,0,1,1.13-.88l5.8.83,1.29-3.8-5.13-2.89a1,1,0,0,1-.48-.63,1,1,0,0,1,.13-.78,17.9,17.9,0,0,1,11.1-7.82,1,1,0,0,1,.78.14,1,1,0,0,1,.43.66l1,5.79,2,0,2,0,1.16-5.76a1,1,0,0,1,.45-.65,1,1,0,0,1,.78-.12,17.9,17.9,0,0,1,10.89,8.1,1,1,0,0,1,.11.79,1,1,0,0,1-.49.62l-5.21,2.75L43,30.65,48.85,30a1,1,0,0,1,1.11.91,11.11,11.11,0,0,1,0,1.33A18,18,0,0,1,45.61,43.77ZM18.69,27.67a1,1,0,1,1,.64,1.26A1,1,0,0,1,18.69,27.67Zm26,1.26a1,1,0,1,1,.64-1.26A1,1,0,0,1,44.67,28.93Z"/></g></svg>