<svg xmlns="http://www.w3.org/2000/svg" viewBox="18 5 28 53" x="0px" y="0px"><g data-name="Layer 19"><path d="M25,11.29a13.41,13.41,0,0,0-3,8L20,49.59l-.91,1.87a1.09,1.09,0,0,0-.1.44V55a1,1,0,0,0,.68.95L22,56.7V57a1,1,0,0,0,2,0V56l3.52-34.25a5.11,5.11,0,0,1,3.21-4.25,4,4,0,0,1,2.54,0,5.08,5.08,0,0,1,3.2,4.25L40,56v1a1,1,0,0,0,2,0v-.3l2.32-.79A1,1,0,0,0,45,55V51.9a1.09,1.09,0,0,0-.1-.44L44,49.59,42,19.36a13.43,13.43,0,0,0-3-8L37.23,9H26.77Z"/><path d="M36,6H28a1,1,0,0,0-1,1V8H37V7A1,1,0,0,0,36,6Z"/></g></svg>