<?xml version="1.0" encoding="utf-8"?><!DOCTYPE svg PUBLIC "-//W3C//DTD SVG 1.1//EN" "http://www.w3.org/Graphics/SVG/1.1/DTD/svg11.dtd"><svg version="1.1" xmlns:rdf="http://www.w3.org/1999/02/22-rdf-syntax-ns#" xmlns:cc="http://creativecommons.org/ns#" xmlns:sodipodi="http://sodipodi.sourceforge.net/DTD/sodipodi-0.dtd" xmlns:dc="http://purl.org/dc/elements/1.1/" xmlns:inkscape="http://www.inkscape.org/namespaces/inkscape" xmlns:svg="http://www.w3.org/2000/svg" xmlns="http://www.w3.org/2000/svg" xmlns:xlink="http://www.w3.org/1999/xlink" x="0px" y="0px" viewBox="0 19.123 100 62" enable-background="new 0 19.123 100 61.754"><path d="M99.961,40.107l-4.423-16.516c-0.164-0.6-0.783-0.954-1.385-0.791l-4.605,1.229c-0.6,0.166-0.953,0.784-0.791,1.385
	l0.185,0.664l-50.708-0.042l-1.625-6.075c-0.142-0.528-0.642-0.879-1.187-0.833v0c-0.066,0.008-0.133,0.022-0.198,0.042
	l-4.605,1.244c-0.6,0.165-0.954,0.784-0.791,1.384l1.737,6.471l-30.56,30.63v0.014c-0.862,0.858-1.205,2.102-0.89,3.277
	c0.315,1.175,1.218,2.087,2.402,2.402h0.014l39.644,10.624c0.025,2.495,1.593,4.793,4.112,5.469c3.027,0.81,6.155-1.006,6.966-4.027
	c0.354-1.322,0.202-2.668-0.325-3.828l40.039-31.705l0.213,0.806c0.165,0.6,0.784,0.953,1.384,0.792l4.605-1.229
	C99.77,41.327,100.123,40.708,99.961,40.107z M9.949,59.562L33.6,35.855l8.661,32.354L9.949,59.562z M49.494,75.642
	c-0.262,0.978-1.22,1.546-2.19,1.284c-0.972-0.26-1.545-1.234-1.286-2.203c0.212-0.79,0.91-1.312,1.667-1.342V73.38
	c0.175-0.011,0.354,0.012,0.537,0.058C49.192,73.696,49.755,74.667,49.494,75.642z M49.099,66.585l-8.845-33.019l48.969-0.112
	L49.099,66.585z"/></svg>