<svg xmlns="http://www.w3.org/2000/svg" viewBox="12.5 19 39 26" x="0px" y="0px"><g data-name="Layer 19"><path d="M13,28v8a1,1,0,0,0,.55.89L16,38.12V25.88l-2.45,1.23A1,1,0,0,0,13,28Z"/><path d="M51,36V28a1,1,0,0,0-.55-.89L48,25.88V38.12l2.45-1.23A1,1,0,0,0,51,36Z"/><path d="M46,45a1,1,0,0,0,1-1V20a1,1,0,0,0-2,0v5.44A10.76,10.76,0,0,1,39.39,27H24.61A10.76,10.76,0,0,1,19,25.44V20a1,1,0,0,0-2,0V44a1,1,0,0,0,2,0V38.56A10.76,10.76,0,0,1,24.61,37H39.39A10.76,10.76,0,0,1,45,38.56V44A1,1,0,0,0,46,45Z"/></g></svg>