<svg xmlns="http://www.w3.org/2000/svg" xmlns:xlink="http://www.w3.org/1999/xlink" version="1.1" x="0px" y="0px" viewBox="8 4 84 90" enable-background="new 0 0 100 100" xml:space="preserve"><path d="M57.729,14.032c0-1.105-0.895-2-2-2H44.271c-1.105,0-2,0.895-2,2v3.137h15.459V14.032z"/><path d="M55.203,7c0-1.105-0.895-2-2-2h-6.405c-1.105,0-2,0.895-2,2v3.031h10.405V7z"/><path d="M13.066,84.902L39.25,95h13.064h8.436l26.184-10.098c1.427-0.55,2.369-1.923,2.369-3.453V24.386  c0-2.301-2.078-4.044-4.344-3.644l-17.872,3.154c-2.302,0.406-4.661-0.299-6.362-1.902l-2.996-2.824h-5.415H42.271l-2.996,2.824  c-1.701,1.603-4.06,2.309-6.362,1.902l-17.872-3.154c-2.266-0.4-4.344,1.343-4.344,3.644v57.063  C10.697,82.979,11.639,84.351,13.066,84.902z M83.77,26.287c0.828,0,1.5,0.672,1.5,1.5s-0.672,1.5-1.5,1.5s-1.5-0.672-1.5-1.5  S82.941,26.287,83.77,26.287z M83.77,51.885c0.828,0,1.5,0.672,1.5,1.5s-0.672,1.5-1.5,1.5s-1.5-0.672-1.5-1.5  S82.941,51.885,83.77,51.885z M83.77,77.484c0.828,0,1.5,0.672,1.5,1.5s-0.672,1.5-1.5,1.5s-1.5-0.672-1.5-1.5  S82.941,77.484,83.77,77.484z M57.367,36.188c0-1.389,1.027-2.564,2.403-2.75l15.179-2.054c1.666-0.225,3.148,1.07,3.148,2.75  v29.385c0,2.095-2.231,3.434-4.08,2.45l-15.179-8.085c-0.905-0.482-1.471-1.424-1.471-2.45V36.188z M21.904,34.133  c0-1.681,1.482-2.976,3.148-2.75l15.179,2.054c1.376,0.186,2.403,1.361,2.403,2.75v19.246c0,1.025-0.565,1.967-1.471,2.45  l-15.179,8.085c-1.849,0.985-4.08-0.355-4.08-2.45V34.133z M22.346,75.379l18.596-6.76h18.116l18.596,6.76  c1.564,0.569,1.641,2.753,0.12,3.429L63.25,85.271H36.75l-14.524-6.463C20.705,78.131,20.782,75.947,22.346,75.379z M16.23,26.287  c0.828,0,1.5,0.672,1.5,1.5s-0.672,1.5-1.5,1.5s-1.5-0.672-1.5-1.5S15.402,26.287,16.23,26.287z M16.23,51.885  c0.828,0,1.5,0.672,1.5,1.5s-0.672,1.5-1.5,1.5s-1.5-0.672-1.5-1.5S15.402,51.885,16.23,51.885z M16.23,77.484  c0.828,0,1.5,0.672,1.5,1.5s-0.672,1.5-1.5,1.5s-1.5-0.672-1.5-1.5S15.402,77.484,16.23,77.484z"/></svg>