<svg xmlns="http://www.w3.org/2000/svg" xmlns:xlink="http://www.w3.org/1999/xlink" version="1.1" x="0px" y="0px" viewBox="3.5 3.5 93 93" enable-background="new 0 0 100 100" xml:space="preserve"><g><path d="M50,11.509c-21.334-0.508-37.998,17.913-38.487,38.487C11.005,71.33,29.425,87.993,50,88.483   c21.334,0.508,37.998-17.913,38.487-38.487C87.979,28.66,71.336,12.016,50,11.509z M86.533,46.691l-23.76,3.165   c-1.055-0.189-2.109-0.378-3.164-0.567c8.575-2.904,17.15-5.809,25.725-8.713C85.896,42.567,86.3,44.611,86.533,46.691z    M59.984,50.228l-1.467,0.195l-1.083-0.397c0.164-0.056,0.328-0.111,0.493-0.167C58.613,49.982,59.299,50.105,59.984,50.228z    M85.091,39.751c-9.078,3.075-18.157,6.15-27.235,9.224c-1.214-0.218-2.429-0.435-3.643-0.653c0.764-1.027,1.528-2.054,2.292-3.082   c8.724-3.843,17.448-7.685,26.172-11.528C83.644,35.647,84.454,37.667,85.091,39.751z M54.445,49.844   c0.135,0.05,0.271,0.099,0.406,0.149c-0.135,0.046-0.269,0.091-0.404,0.137c0.004-0.045,0.017-0.089,0.019-0.134   C54.463,49.943,54.449,49.896,54.445,49.844z M56.138,50.465c0.184,0.067,0.367,0.135,0.55,0.202   c-0.63,0.084-1.26,0.168-1.89,0.252C55.245,50.767,55.691,50.616,56.138,50.465z M53.053,53.219   c0.099-0.102,0.186-0.214,0.276-0.325c0.09,0.194,0.179,0.388,0.269,0.583L53.053,53.219z M54.157,54.691   c0.127,0.275,0.253,0.55,0.38,0.825c-0.739-0.564-1.478-1.129-2.217-1.693C52.933,54.112,53.545,54.401,54.157,54.691z    M53.019,46.776c0.16-0.07,0.32-0.141,0.48-0.211c-0.076,0.158-0.152,0.317-0.227,0.475C53.19,46.949,53.108,46.859,53.019,46.776z    M52.459,46.088c0.645-0.464,1.29-0.928,1.935-1.393c-0.109,0.228-0.218,0.456-0.328,0.685   C53.531,45.616,52.995,45.852,52.459,46.088z M54.447,46.573c0.086-0.18,0.172-0.36,0.258-0.54   c0.071-0.031,0.142-0.063,0.213-0.094L54.447,46.573z M55.272,44.849c0.191-0.399,0.382-0.799,0.573-1.198   c0.556-0.4,1.112-0.8,1.668-1.2c-0.52,0.7-1.041,1.4-1.561,2.099C55.726,44.649,55.499,44.749,55.272,44.849z M82.288,32.949   c-8.25,3.634-16.499,7.267-24.749,10.901c0.757-1.018,1.514-2.035,2.27-3.053c6.27-4.513,12.54-9.026,18.81-13.539   C79.999,29.04,81.23,30.944,82.288,32.949z M78.091,26.583c-5.53,3.98-11.061,7.961-16.591,11.941   c4.082-5.489,8.165-10.979,12.247-16.468C75.314,23.44,76.769,24.953,78.091,26.583z M73.101,21.491   c-4.632,6.229-9.264,12.457-13.896,18.686c-0.862,0.621-1.725,1.242-2.587,1.862c3.838-8.022,7.677-16.043,11.515-24.065   C69.885,19.006,71.548,20.181,73.101,21.491z M67.389,17.538c-4.075,8.515-8.149,17.03-12.224,25.545l-3.228,2.324   c-0.188-1.377-0.376-2.755-0.564-4.132c3.321-8.792,6.643-17.585,9.964-26.377C63.448,15.588,65.472,16.472,67.389,17.538z    M48.438,49.996c-0.108-2.015,3.016-2.004,3.124,0C51.454,52.009,48.546,52.009,48.438,49.996z M50.918,54.462   c-0.076,0.503-0.151,1.006-0.227,1.509c-0.051-0.161-0.102-0.322-0.153-0.483C50.664,55.146,50.791,54.804,50.918,54.462z    M50.052,56.8c0.117,0.367,0.233,0.734,0.35,1.102c-0.148,0.987-0.296,1.974-0.444,2.961c-0.137-0.899-0.274-1.798-0.411-2.697   C49.714,57.711,49.883,57.256,50.052,56.8z M49.279,56.416c-0.109-0.713-0.217-1.425-0.326-2.138   c0.108,0.03,0.214,0.058,0.323,0.08c0.118,0.371,0.235,0.742,0.353,1.112C49.512,55.785,49.396,56.1,49.279,56.416z M49.204,44.589   c0.089-0.51,0.177-1.019,0.266-1.529c0.05,0.143,0.1,0.286,0.15,0.429L49.204,44.589z M50.06,44.749l0.29,0.83   c-0.118-0.014-0.229-0.042-0.351-0.049c-0.083-0.005-0.159,0.014-0.241,0.015C49.86,45.28,49.96,45.014,50.06,44.749z    M49.771,41.322c0.139-0.801,0.278-1.602,0.417-2.403c0.102,0.75,0.205,1.499,0.307,2.249c-0.135,0.357-0.269,0.713-0.404,1.07   C49.985,41.932,49.878,41.627,49.771,41.322z M50.533,43.498c0.069-0.182,0.138-0.365,0.207-0.547   c0.085,0.622,0.17,1.244,0.255,1.866C50.841,44.377,50.687,43.937,50.533,43.498z M60.517,14.642   c-3.129,8.284-6.258,16.567-9.388,24.85c-0.153-1.117-0.305-2.233-0.458-3.35c1.315-7.566,2.63-15.132,3.944-22.698   C56.643,13.671,58.615,14.074,60.517,14.642z M50,13.231c1.272-0.03,2.527,0.01,3.762,0.116   c-1.158,6.664-2.316,13.327-3.474,19.991c-0.909-6.653-1.818-13.307-2.727-19.96C48.371,13.306,49.183,13.25,50,13.231z    M46.711,13.461c1.032,7.551,2.063,15.103,3.095,22.654c-0.205,1.182-0.411,2.363-0.616,3.545   c-2.912-8.32-5.824-16.641-8.736-24.961C42.49,14.117,44.582,13.699,46.711,13.461z M39.629,14.942   c3.086,8.819,6.173,17.638,9.259,26.457c-0.263,1.512-0.525,3.024-0.788,4.535c-0.012,0.006-0.022,0.013-0.034,0.019   c-0.975-0.76-1.949-1.52-2.924-2.28c-3.81-8.784-7.62-17.568-11.43-26.351C35.609,16.373,37.587,15.574,39.629,14.942z    M44.74,50.168c0.274,0.096,0.549,0.192,0.823,0.288c0.009,0.137,0.003,0.28,0.026,0.412c-0.646-0.101-1.292-0.201-1.938-0.302   C44.014,50.434,44.377,50.301,44.74,50.168z M44.597,49.208c0.148-0.021,0.296-0.042,0.445-0.064   c-0.102,0.037-0.204,0.075-0.306,0.112C44.689,49.24,44.643,49.224,44.597,49.208z M44.864,46.01   c0.151,0.073,0.302,0.145,0.453,0.218c0.175,0.402,0.349,0.805,0.523,1.207C45.515,46.96,45.19,46.485,44.864,46.01z    M45.977,54.399l0.818-0.393c-0.321,0.237-0.643,0.473-0.964,0.71C45.88,54.61,45.928,54.505,45.977,54.399z M45.973,45.591   l-0.121-0.28c0.247,0.192,0.494,0.385,0.74,0.577C46.386,45.789,46.179,45.69,45.973,45.591z M46.66,52.917   c0.043,0.046,0.079,0.097,0.125,0.141c-0.081,0.039-0.162,0.078-0.244,0.117L46.66,52.917z M44.795,45.024   c-0.302-0.145-0.604-0.29-0.905-0.435c-0.396-0.578-0.793-1.156-1.189-1.734c0.581,0.453,1.162,0.905,1.742,1.358   C44.561,44.484,44.678,44.754,44.795,45.024z M32.948,17.711c3.595,8.288,7.19,16.577,10.785,24.865   c-0.876-0.683-1.752-1.366-2.628-2.049c-4.458-6.503-8.916-13.006-13.374-19.509C29.375,19.784,31.119,18.676,32.948,17.711z    M27.048,21.541c3.94,5.747,7.88,11.494,11.82,17.242c-5.503-4.29-11.005-8.58-16.508-12.87   C23.794,24.33,25.362,22.866,27.048,21.541z M21.788,26.551c6.225,4.853,12.45,9.706,18.675,14.559   c0.624,0.91,1.248,1.821,1.873,2.731c-8.16-3.924-16.321-7.847-24.481-11.771C18.991,30.111,20.309,28.263,21.788,26.551z    M17.43,32.82c8.627,4.148,17.253,8.296,25.88,12.443c0.68,0.991,1.359,1.982,2.039,2.974c-0.834,0.119-1.668,0.239-2.502,0.358   c-9.33-3.267-18.66-6.534-27.99-9.801C15.527,36.711,16.393,34.715,17.43,32.82z M43.463,49.721   c-0.522,0.191-1.043,0.382-1.565,0.573c-0.781-0.122-1.563-0.243-2.344-0.365c1.065-0.152,2.131-0.305,3.196-0.457   C42.988,49.555,43.226,49.638,43.463,49.721z M14.607,39.617c8.798,3.081,17.596,6.161,26.393,9.242   c-1.445,0.207-2.89,0.413-4.335,0.62c-7.757-1.208-15.514-2.416-23.271-3.624C13.604,43.708,14.016,41.625,14.607,39.617z    M13.235,49.996c-0.026-1.11,0.01-2.204,0.089-3.286c6.814,1.061,13.629,2.122,20.443,3.184c-6.783,0.97-13.566,1.941-20.349,2.911   C13.326,51.874,13.258,50.938,13.235,49.996z M13.501,53.656c7.718-1.104,15.437-2.208,23.155-3.312l3.582,0.558   c-8.45,3.091-16.899,6.183-25.349,9.274C14.246,58.058,13.772,55.879,13.501,53.656z M15.145,60.996   c8.949-3.274,17.897-6.548,26.846-9.822c1.266,0.197,2.533,0.395,3.799,0.592c-0.67,0.912-1.34,1.825-2.01,2.737   c-8.69,4.178-17.38,8.356-26.07,12.535C16.692,65.107,15.831,63.086,15.145,60.996z M44.764,54.982l-0.362,0.786   c-0.354,0.261-0.709,0.522-1.063,0.783c0.334-0.455,0.669-0.91,1.003-1.365L44.764,54.982z M18.121,67.792   c8.193-3.939,16.385-7.878,24.578-11.817l-1.674,2.28c-6.55,4.823-13.1,9.646-19.65,14.469   C20.17,71.169,19.081,69.52,18.121,67.792z M21.901,73.4c5.807-4.276,11.614-8.552,17.421-12.828   c-4.293,5.845-8.586,11.69-12.879,17.536C24.8,76.675,23.279,75.1,21.901,73.4z M27.099,78.663   c4.846-6.599,9.693-13.197,14.539-19.796c0.674-0.496,1.348-0.993,2.023-1.489c-3.817,8.281-7.633,16.562-11.449,24.843   C30.405,81.185,28.697,79.992,27.099,78.663z M32.962,82.638c4.042-8.771,8.084-17.542,12.127-26.313   c0.992-0.731,1.984-1.461,2.976-2.192c0.2,1.312,0.4,2.624,0.6,3.937c-3.336,9.007-6.672,18.014-10.007,27.021   C36.676,84.444,34.774,83.619,32.962,82.638z M39.479,85.348c3.151-8.509,6.303-17.018,9.454-25.527   c0.198,1.3,0.397,2.601,0.595,3.901c-1.146,7.635-2.292,15.27-3.438,22.905C43.811,86.421,41.603,85.984,39.479,85.348z M50,86.761   c-1.031,0.025-2.047-0.009-3.054-0.075c1.006-6.702,2.012-13.403,3.018-20.105c1.016,6.661,2.031,13.322,3.047,19.984   C52.018,86.664,51.016,86.737,50,86.761z M53.863,86.479c-1.157-7.586-2.314-15.172-3.47-22.758   c0.199-1.323,0.397-2.646,0.596-3.97c2.721,8.568,5.442,17.137,8.163,25.705C57.438,85.915,55.672,86.258,53.863,86.479z    M59.978,85.215c-2.9-9.132-5.8-18.263-8.7-27.395c0.167-1.112,0.334-2.224,0.501-3.336c1.174,0.897,2.349,1.794,3.523,2.691   c3.876,8.41,7.752,16.82,11.628,25.23C64.739,83.56,62.414,84.503,59.978,85.215z M55.364,55.262   c0.016,0.008,0.032,0.015,0.048,0.023l1.569,2.098c-0.329-0.251-0.658-0.503-0.987-0.754   C55.784,56.173,55.574,55.717,55.364,55.262z M67.688,82.001L56.759,58.288c0.699,0.534,1.398,1.068,2.098,1.602   c4.652,6.221,9.304,12.442,13.955,18.664C71.209,79.837,69.498,80.993,67.688,82.001z M73.477,78.014   c-4.043-5.407-8.085-10.813-12.128-16.22c5.373,4.104,10.746,8.208,16.12,12.313C76.238,75.507,74.906,76.815,73.477,78.014z    M78.029,73.46c-6.185-4.725-12.371-9.449-18.556-14.174l-2.407-3.219c8.286,3.918,16.572,7.837,24.859,11.755   C80.797,69.827,79.494,71.713,78.029,73.46z M82.337,67.068c-8.79-4.157-17.579-8.313-26.369-12.47   c-0.671-0.897-1.341-1.794-2.012-2.691c0.003-0.006,0.006-0.011,0.009-0.016c1.482-0.197,2.964-0.395,4.446-0.592   c8.832,3.239,17.664,6.477,26.497,9.716C84.224,63.127,83.359,65.148,82.337,67.068z M85.155,60.191   c-8.305-3.045-16.61-6.091-24.915-9.136c0.834-0.111,1.667-0.222,2.501-0.333c7.862,1.409,15.723,2.817,23.585,4.226   C86.055,56.744,85.662,58.494,85.155,60.191z M65.53,50.35c7.029-0.936,14.057-1.873,21.086-2.809   c0.073,0.815,0.129,1.632,0.149,2.455c-0.033,1.39-0.144,2.757-0.317,4.102C79.476,52.849,72.503,51.599,65.53,50.35z M50,5   C25.121,5.491,5.495,25.117,5.004,49.996C4.513,74.875,25.86,94.515,50,94.992c24.879,0.491,44.519-20.856,44.996-44.996   C95.487,25.117,74.14,5.477,50,5z M50,91.232C27.168,90.746,9.25,72.828,8.764,49.996C8.278,27.165,27.901,9.23,50,8.76   c22.831-0.486,40.765,19.137,41.236,41.236C91.722,72.827,72.099,90.761,50,91.232z"/></g></svg>